<svg xmlns="http://www.w3.org/2000/svg" width="200px" viewBox="0 0 607.75 252.5"><defs><style>.cls-1{fill:#111;}</style></defs><g id="Layer_2" data-name="Layer 2"><g id="Layer_1-2" data-name="Layer 1"><path class="cls-1" d="M0,101.75c0-54.5,39-96.5,90.5-96.5s95.25,42,95.25,96.5c0,55-39.5,95.5-90.25,95.5C42.25,197.25,0,156.75,0,101.75Zm147,8.5c0-46.5-22-87.5-57.5-87.5-35,0-50.75,25.75-50.75,63.5,0,48,18,93.5,57,93.5C136.5,179.75,147,151.75,147,110.25Z"/><path class="cls-1" d="M319.75,136.25c0,40.25-31.75,61.25-60.75,61.25s-60.75-21-60.75-61.25S230,75,259,75,319.75,96,319.75,136.25ZM283,144c0-27.25-6.75-55.25-26.5-55.25-15,0-21.5,15.75-21.5,39.75,0,27.25,6.75,55.25,26.5,55.25C276.5,183.75,283,168,283,144Z"/><path class="cls-1" d="M322.25,187c0-1.25.75-2.75,2.75-5.75A57.67,57.67,0,0,0,333.5,162c6-25,5.5-99.5.75-124C332,27,329,21.25,325,15.25c-2-3-2.75-4.5-2.75-5.75,0-5.25,11.5-9.5,28-9.5,14,0,22.25,4.75,22.25,15.75,0,9.5-5.75,25.5-5.75,80.25,0,61,5.5,73,13.75,85.25,2,3,2.75,4.5,2.75,5.75,0,5.25-11.5,9.5-30.5,9.5S322.25,192.25,322.25,187Z"/><path class="cls-1" d="M487.5,165.75c-8,17-22.5,31.75-46.5,31.75-32.25,0-55.25-22.5-55.25-57C385.75,104,411.25,75,445,75c22.5,0,39.25,14,39.25,30.5,0,10-8,16.5-18.75,18-12.5,1.75-33,2-50,.75v1c0,26.25,13.5,42.75,36,42.75a37.34,37.34,0,0,0,25-8.75c4.75-3.75,8-5.25,10.5-3.25S489.75,161,487.5,165.75ZM416.75,112.5H423c25,0,32.25-4.5,32.25-14,0-6.5-5.75-11-12.25-11C428.5,87.5,419.75,97.75,416.75,112.5Z"/><path class="cls-1" d="M607.75,83.5c0,12.75-15.25,54.25-29.25,86-20,45.25-39.25,83-75.25,83-13.25,0-29.25-5-29.25-20.75,0-8,6.25-15.75,16.5-15.75,15,0,13.75,16,25.5,16,9.5,0,17.5-10.5,17.5-29.25C533.5,175.5,509,115.5,491,90.5c-2.25-3-3-4.5-3-5.75,0-5.25,10-9.5,27.25-9.5,15,0,28.75,2.5,28.75,7.75,0,2.25-3.75,7.25-3.75,15.75,0,12.75,8,47,20,73.25,14.5-28.5,16-55.75,15-66.25-1-12-6-19.5-6-24.25S579,75,588.5,75C598.5,75,607.75,78.25,607.75,83.5Z"/></g></g></svg>